<svg width="121" height="122" viewBox="0 0 121 122" fill="none" xmlns="http://www.w3.org/2000/svg">
<path fill-rule="evenodd" clip-rule="evenodd" d="M41.5938 34.5312C41.5938 29.517 43.5857 24.7081 47.1313 21.1625C50.6769 17.6169 55.4857 15.625 60.5 15.625C65.5142 15.625 70.3231 17.6169 73.8687 21.1625C77.4143 24.7081 79.4062 29.517 79.4062 34.5312C79.4062 39.5455 77.4143 44.3544 73.8687 47.9C70.3231 51.4456 65.5142 53.4375 60.5 53.4375C55.4857 53.4375 50.6769 51.4456 47.1313 47.9C43.5857 44.3544 41.5938 39.5455 41.5938 34.5312ZM79.4062 49.6562C79.4062 45.6448 80.9998 41.7977 83.8363 38.9613C86.6727 36.1248 90.5199 34.5312 94.5312 34.5312C98.5426 34.5312 102.39 36.1248 105.226 38.9613C108.063 41.7977 109.656 45.6448 109.656 49.6562C109.656 53.6676 108.063 57.5148 105.226 60.3512C102.39 63.1877 98.5426 64.7812 94.5312 64.7812C90.5199 64.7812 86.6727 63.1877 83.8363 60.3512C80.9998 57.5148 79.4062 53.6676 79.4062 49.6562ZM11.3438 49.6562C11.3438 45.6448 12.9373 41.7977 15.7738 38.9613C18.6102 36.1248 22.4573 34.5312 26.4688 34.5312C30.4801 34.5312 34.3273 36.1248 37.1637 38.9613C40.0002 41.7977 41.5937 45.6448 41.5938 49.6562C41.5938 53.6676 40.0002 57.5148 37.1637 60.3512C34.3273 63.1877 30.4801 64.7812 26.4688 64.7812C22.4573 64.7812 18.6102 63.1877 15.7738 60.3512C12.9373 57.5148 11.3438 53.6676 11.3438 49.6562ZM31.8129 76.7149C34.8881 71.8951 39.1288 67.9285 44.1429 65.1818C49.1571 62.435 54.7828 60.9968 60.5 61C65.2887 60.9956 70.0243 62.0027 74.3968 63.9552C78.7694 65.9078 82.6802 68.7618 85.8733 72.3305C89.0665 75.8991 91.4699 80.102 92.9263 84.6638C94.3827 89.2257 94.8591 94.0437 94.3245 98.8024C94.2592 99.3936 94.0553 99.9611 93.7294 100.459C93.4035 100.956 92.9649 101.37 92.449 101.666C82.7265 107.245 71.7094 110.173 60.5 110.156C48.879 110.156 37.9637 107.071 28.551 101.666C28.0351 101.37 27.5965 100.956 27.2706 100.459C26.9447 99.9611 26.7408 99.3936 26.6755 98.8024C25.8287 91.0716 27.6407 83.2831 31.8129 76.7199V76.7149Z" fill="#254BB8"/>
<path d="M25.6217 72.3638C20.6493 80.0391 18.3327 89.1339 19.0272 98.2527C15.9997 97.7937 13.0221 97.051 10.1337 96.0344L9.55388 95.8327C9.03658 95.6491 8.58361 95.3195 8.24984 94.8837C7.91607 94.4479 7.71582 93.9247 7.67334 93.3774L7.62292 92.7674C7.41926 90.2363 7.72756 87.6901 8.52943 85.2808C9.3313 82.8714 10.6103 80.6483 12.2901 78.744C13.9699 76.8398 16.0161 75.2934 18.3066 74.1972C20.5971 73.101 23.0849 72.4775 25.6217 72.3638ZM101.973 98.2527C102.667 89.1339 100.35 80.0391 95.3782 72.3638C97.9149 72.4775 100.403 73.101 102.693 74.1972C104.984 75.2934 107.03 76.8398 108.71 78.744C110.39 80.6483 111.669 82.8714 112.47 85.2808C113.272 87.6901 113.581 90.2363 113.377 92.7674L113.326 93.3774C113.283 93.9238 113.082 94.4459 112.749 94.8807C112.415 95.3156 111.963 95.6444 111.446 95.8277L110.866 96.0294C108.008 97.0377 105.038 97.7889 101.973 98.2527Z" fill="#254BB8"/>
</svg>
