<svg width="183" height="111" viewBox="0 0 183 111" fill="none" xmlns="http://www.w3.org/2000/svg">
<path d="M168.226 34.2953L115.465 34.2953V25.8218L168.226 25.8218V34.2953Z" fill="#FFC107"/>
<path d="M39.1226 14.3998H26.6297C25.9064 11.2436 23.4078 10.1916 19.7257 10.1916C16.5038 10.1916 13.7422 11.4409 13.7422 14.2683C13.7422 16.5696 15.4518 17.4244 18.2791 17.8846L26.8927 19.2654C34.52 20.5147 40.3062 24.7229 40.3062 33.3364C40.3062 41.424 34.0597 48.6567 20.712 48.6567C8.15329 48.6567 0.986285 42.739 0 32.6789H12.4929C13.2162 37.2158 17.0956 38.4651 21.238 38.4651C25.4461 38.4651 28.0105 36.6898 28.0105 34.0597C28.0105 31.1666 25.9722 30.1803 22.6188 29.5885L13.808 28.142C5.32594 26.7612 1.3808 21.8955 1.3808 14.7943C1.3808 6.70674 7.95603 0 19.8572 0C30.3776 0 38.2678 5.32594 39.1226 14.3998Z" fill="#0059B2"/>
<path d="M61.2848 0.854781V47.8019H49.0548V0.854781H61.2848Z" fill="#0059B2"/>
<path d="M108.535 14.3998H96.0421C95.3188 11.2436 92.8202 10.1916 89.1381 10.1916C85.9162 10.1916 83.1546 11.4409 83.1546 14.2683C83.1546 16.5696 84.8642 17.4244 87.6915 17.8846L96.3051 19.2654C103.932 20.5147 109.719 24.7229 109.719 33.3364C109.719 41.424 103.472 48.6567 90.1243 48.6567C77.5657 48.6567 70.3986 42.739 69.4124 32.6789H81.9053C82.6286 37.2158 86.508 38.4651 90.6504 38.4651C94.8585 38.4651 97.4228 36.6898 97.4228 34.0597C97.4228 31.1666 95.3845 30.1803 92.0311 29.5885L83.2203 28.142C74.7383 26.7612 70.7932 21.8955 70.7932 14.7943C70.7932 6.70674 77.3684 0 89.2696 0C99.7899 0 107.68 5.32594 108.535 14.3998Z" fill="#0059B2"/>
<path d="M14.86 62.4976V109.445H2.63009V62.4976H14.86Z" fill="#0059B2"/>
<path d="M56.3898 62.4976H67.2389V109.445H52.5762L37.9792 82.1575H36.1381V109.445H25.289V62.4976H39.9517L54.5487 89.7848H56.3898V62.4976Z" fill="#0059B2"/>
<path d="M89.5942 81.3027H107.939V91.8231H89.5942V109.445H77.3643V62.4976H113.265V73.281H89.5942V81.3027Z" fill="#0059B2"/>
<path d="M141.436 61.6428C156.625 61.6428 164.909 72.0317 164.909 85.9712C164.909 99.9107 156.625 110.3 141.436 110.3C126.247 110.3 117.962 99.9107 117.962 85.9712C117.962 72.0317 126.247 61.6428 141.436 61.6428ZM141.436 99.5161C148.734 99.5161 152.416 93.8614 152.416 85.9712C152.416 78.0809 148.734 72.4262 141.436 72.4262C134.137 72.4262 130.455 78.0151 130.455 85.9712C130.455 93.8614 134.137 99.5161 141.436 99.5161Z" fill="#0059B2"/>
<path d="M183 109.445H170.902V98.0038H183V109.445Z" fill="#0059B2"/>
</svg>
